Coordinates
nRows=9
nColumns=38

# SIMM Motion File Header:
name Coordinates
datacolumns 38
datarows 9
otherdata 1
range 1.93899999999999980000 1.94699999999999980000

Units are S.I. units (second, meters, Newtons, ...)
Angles are in degrees.

endheader
time	pelvis_tilt	pelvis_list	pelvis_rotation	pelvis_tx	pelvis_ty	pelvis_tz	hip_flexion_r	hip_adduction_r	hip_rotation_r	knee_angle_r	ankle_angle_r	subtalar_angle_r	mtp_angle_r	hip_flexion_l	hip_adduction_l	hip_rotation_l	knee_angle_l	ankle_angle_l	subtalar_angle_l	mtp_angle_l	lumbar_extension	lumbar_bending	lumbar_rotation	arm_flex_r	arm_add_r	arm_rot_r	elbow_flex_r	pro_sup_r	wrist_flex_r	wrist_dev_r	arm_flex_l	arm_add_l	arm_rot_l	elbow_flex_l	pro_sup_l	wrist_flex_l	wrist_dev_l
      1.93899999999999980000	      2.60482762553694470000	     -2.45176659125233250000	      0.61189314746117540000	      0.75431181161550609000	      0.96974951920637265000	     -0.29340733844321926000	     -3.20239541769376860000	      8.77762316153381230000	      4.45691280228220510000	    -33.51640132593324500000	     26.45770482851389000000	     -0.00000000000000398604	     -0.00000000000001845076	     32.26998910146552600000	      1.69069842346327340000	      1.56055439589793550000	    -94.84434943717842300000	     -9.50459585396132490000	     -0.00000000000000359938	      0.00000000000000760166	    -16.73070662113070000000	      3.08821643221471650000	      6.21168896558400880000	    -13.08075994999151500000	    -28.90580072682206100000	     -9.30340628657547870000	     95.90192107237614000000	     68.01723515897705900000	     -0.00000000000000070615	     -0.00000000000000900423	    -18.48807153274391300000	    -17.55675612091096800000	      2.52242395735976330000	     83.99566039492620500000	     99.52658088231667900000	      0.00000000000000363278	     -0.00000000000000071652
      1.93999999999999990000	      2.56314844379021170000	     -2.32390100716012920000	      0.61647890733661903000	      0.75449947583006260000	      0.97011060628366097000	     -0.29341719408611061000	     -3.59551522956994330000	      8.62157247229599300000	      4.47310422205062700000	    -33.17259553317555300000	     26.20898907652733500000	     -0.00000000000000438946	     -0.00000000000001862165	     32.50091020573720600000	      1.83537307719799550000	      1.49690216938609130000	    -94.46898862712063800000	     -9.40750876256364070000	     -0.00000000000000357230	      0.00000000000000784025	    -16.64991453492649100000	      2.93773036597068550000	      6.26141167176319510000	    -13.05726937418862100000	    -28.91132039077269800000	     -9.40036246498919150000	     96.03682814772629700000	     68.02525133818323900000	     -0.00000000000000070795	     -0.00000000000000917874	    -18.82420960943246200000	    -17.61093748933294000000	      2.32597082255154360000	     84.17041616403641100000	     99.37208945469578200000	      0.00000000000000380369	     -0.00000000000000071106
      1.94099999999999980000	      2.52050648238387560000	     -2.19501565495596300000	      0.61910672256042332000	      0.75469464466274716000	      0.97047630846542110000	     -0.29342488536020261000	     -3.98837226744480940000	      8.46361749980049720000	      4.48778688880591670000	    -32.82555255071872600000	     25.94760362883943800000	     -0.00000000000000483027	     -0.00000000000001879924	     32.72797058471310500000	      1.97892962370627190000	      1.43004608615640900000	    -94.08641008799359900000	     -9.30960915995035340000	     -0.00000000000000355879	      0.00000000000000806791	    -16.56733048441766300000	      2.78541823221078210000	      6.31242152915393010000	    -13.03706627827590100000	    -28.91603982519155400000	     -9.49738747498664710000	     96.17319654379632300000	     68.03183154805798000000	     -0.00000000000000071026	     -0.00000000000000935509	    -19.16167264864863300000	    -17.66628484971905900000	      2.13009522584338030000	     84.34936063767217700000	     99.21621440659433200000	      0.00000000000000399423	     -0.00000000000000070324
      1.94199999999999990000	      2.47695189561309630000	     -2.06514651051884270000	      0.61980920977193588000	      0.75489716338201718000	      0.97084652818269379000	     -0.29343044398356494000	     -4.38088276108439970000	      8.30378689642114050000	      4.50087454421152170000	    -32.47546877245662200000	     25.67354879558283500000	     -0.00000000000000531145	     -0.00000000000001888755	     32.95112594701092900000	      2.12134604427800080000	      1.36008746033820340000	    -93.69665455498889600000	     -9.21096189801415480000	     -0.00000000000000356529	      0.00000000000000829754	    -16.48302804130262100000	      2.63133125695350810000	      6.36469664659597620000	    -13.02007138662414800000	    -28.91996888332760200000	     -9.59439285028247470000	     96.31095017548588500000	     68.03701066063773300000	     -0.00000000000000071167	     -0.00000000000000952779	    -19.50032547022248500000	    -17.72272556747263300000	      1.93484961481373350000	     84.53221952698230300000	     99.05930589487456900000	      0.00000000000000418824	     -0.00000000000000069543
      1.94299999999999980000	      2.43253429968380090000	     -1.93432926734209420000	      0.61862397941693537000	      0.75510686146127015000	      0.97122116730019503000	     -0.29343391109280187000	     -4.77295713751351070000	      8.14211050045906680000	      4.51227804745987090000	    -32.12254927751560300000	     25.38684000288643400000	     -0.00000000000000581100	     -0.00000000000001893572	     33.17033464311746400000	      2.26260846602823440000	      1.28713606818502550000	    -93.29975983266068300000	     -9.11163987318989930000	     -0.00000000000000357819	      0.00000000000000852376	    -16.39708299871640300000	      2.47552211102612360000	      6.41820895899015830000	    -13.00620183093595000000	    -28.92311854794074200000	     -9.69129061597713990000	     96.45001283190730100000	     68.04082833530611700000	     -0.00000000000000071319	     -0.00000000000000970922	    -19.84003429872088400000	    -17.78018458541338700000	      1.74028147837113930000	     84.71872260981449200000	     98.90170600735828500000	      0.00000000000000438261	     -0.00000000000000068792
      1.94400000000000000000	      2.38730257931210370000	     -1.80259948940277440000	      0.61559341934633716000	      0.75532355345008551000	      0.97160012704014354000	     -0.29343533718580217000	     -5.16450023988491050000	      7.97861954601822630000	      4.52190578915900240000	    -31.76700726184068200000	     25.08750765161988000000	     -0.00000000000000631728	     -0.00000000000001897818	     33.38555757371231200000	      2.40271081941375050000	      1.21131012390932540000	    -92.89576066017892200000	     -9.01172335162120500000	     -0.00000000000000358625	      0.00000000000000875145	    -16.30957303626732000000	      2.31804504974252980000	      6.47292451133979260000	    -12.99537140463358400000	    -28.92550095549675100000	     -9.78799337511662060000	     96.59030813773368600000	     68.04332872704949900000	     -0.00000000000000071478	     -0.00000000000000987850	    -20.18066681492473800000	    -17.83858454060926100000	      1.54643356587757700000	     84.90860394488183300000	     98.74374740022697900000	      0.00000000000000457950	     -0.00000000000000067805
      1.94499999999999980000	      2.34130470293673780000	     -1.66999274994566660000	      0.61076446726808586000	      0.75554703988833016000	      0.97198330789671306000	     -0.29343478204537682000	     -5.55541156466155870000	      7.81334685618348690000	      4.52966412204371770000	    -31.40906345373313600000	     24.77559703943304800000	     -0.00000000000000685864	     -0.00000000000001901221	     33.59675808143168800000	      2.54165449819771850000	      1.13273623848242710000	    -92.48468856949678200000	     -8.91129927256825560000	     -0.00000000000000359162	      0.00000000000000895329	    -16.22057738633083100000	      2.15895603233062290000	      6.52880375248695350000	    -12.98749082418480300000	    -28.92712940987485500000	     -9.88441439911704300000	     96.73175951389805500000	     68.04456019410444900000	     -0.00000000000000071457	     -0.00000000000001006423	    -20.52209220177346800000	    -17.89784589131286600000	      1.35334411844571710000	     85.10160207727319900000	     98.58575195323717800000	      0.00000000000000479519	     -0.00000000000000067031
      1.94600000000000000000	      2.29458753890464480000	     -1.53654476470461640000	      0.60418838015859333000	      0.75577710823390576000	      0.97237060953130783000	     -0.29343231465933711000	     -5.94558549767507310000	      7.64632702906273300000	      4.53545779559598830000	    -31.04894552941320600000	     24.45116828795719100000	     -0.00000000000000742831	     -0.00000000000001905973	     33.80390184132884500000	      2.67944802508681510000	      1.05154937241054380000	    -92.06657173945326600000	     -8.81046055201515270000	     -0.00000000000000360445	      0.00000000000000914709	    -16.13017649941218700000	      1.99831283300165400000	      6.58580182971631970000	    -12.98246799069249300000	    -28.92801839309625200000	     -9.98046771835156580000	     96.87429013903685900000	     68.04457500641774500000	     -0.00000000000000071385	     -0.00000000000001026615	    -20.86418119239287300000	    -17.95788704510126600000	      1.16104710056983820000	     85.29746024374611600000	     98.42802942447693200000	      0.00000000000000500761	     -0.00000000000000066037
      1.94699999999999980000	      2.24719667104212340000	     -1.40229152739181860000	      0.59592050329431390000	      0.75601353380056557000	      0.97276193064569050000	     -0.29342801313470940000	     -6.33491154751173640000	      7.47759662513908290000	      4.53919039408471650000	    -30.68688752798972900000	     24.11429626716533300000	     -0.00000000000000801271	     -0.00000000000001915695	     34.00695675328940800000	      2.81610671657648930000	      0.96789278773198562000	    -91.64143484908109400000	     -8.70930538614541130000	     -0.00000000000000360939	      0.00000000000000935360	    -16.03845170696169800000	      1.83617515237468450000	      6.64386888400115350000	    -12.98020825171380500000	    -28.92818357516474800000	    -10.07606821293357400000	     97.01782291264549900000	     68.04342905388014600000	     -0.00000000000000071394	     -0.00000000000001046856	    -21.20680612039535600000	    -18.01862448643860400000	      0.96957243213249356000	     85.49592657688646100000	     98.27087610536304400000	      0.00000000000000521194	     -0.00000000000000064919
